<mxfile host="app.diagrams.net" modified="2024-03-19T08:24:10.477Z" agent="Mozilla/5.0 (Windows NT 10.0; Win64; x64) AppleWebKit/537.36 (KHTML, like Gecko) Chrome/96.0.4664.110 Safari/537.36" etag="8rCy2lQ6KcaGvpVV_oo7" version="24.0.7" type="github" pages="2">
  <diagram id="k53R_lnt_Sdv_NGEuWvp" name="第 1 页">
    <mxGraphModel dx="1877" dy="588" grid="1" gridSize="10" guides="1" tooltips="1" connect="1" arrows="1" fold="1" page="1" pageScale="1" pageWidth="827" pageHeight="1169" math="0" shadow="0">
      <root>
        <mxCell id="0" />
        <mxCell id="1" parent="0" />
        <mxCell id="URvbOD4tHFGXEVozk75N-1" value="sequence" style="rounded=0;whiteSpace=wrap;html=1;fillColor=#dae8fc;strokeColor=#6c8ebf;container=0;" parent="1" vertex="1">
          <mxGeometry x="13" y="145" width="160" height="40" as="geometry" />
        </mxCell>
        <mxCell id="URvbOD4tHFGXEVozk75N-2" value="count" style="rounded=0;whiteSpace=wrap;html=1;fillColor=#d5e8d4;strokeColor=#82b366;container=0;" parent="1" vertex="1">
          <mxGeometry x="172" y="145" width="81" height="40" as="geometry" />
        </mxCell>
        <mxCell id="URvbOD4tHFGXEVozk75N-3" value="...." style="rounded=0;whiteSpace=wrap;html=1;fillColor=#f5f5f5;strokeColor=#666666;fontColor=#333333;container=0;" parent="1" vertex="1">
          <mxGeometry x="253" y="145" width="161" height="40" as="geometry" />
        </mxCell>
        <mxCell id="URvbOD4tHFGXEVozk75N-5" value="" style="shape=curlyBracket;whiteSpace=wrap;html=1;rounded=1;labelPosition=left;verticalLabelPosition=middle;align=right;verticalAlign=middle;rotation=-90;size=0.5;container=0;" parent="1" vertex="1">
          <mxGeometry x="83" y="125" width="20" height="160" as="geometry" />
        </mxCell>
        <mxCell id="URvbOD4tHFGXEVozk75N-6" value="Fixed64" style="text;html=1;align=center;verticalAlign=middle;resizable=0;points=[];autosize=1;strokeColor=none;fillColor=none;container=0;" parent="1" vertex="1">
          <mxGeometry x="58" y="207" width="70" height="30" as="geometry" />
        </mxCell>
        <mxCell id="URvbOD4tHFGXEVozk75N-8" value="" style="shape=curlyBracket;whiteSpace=wrap;html=1;rounded=1;flipH=1;labelPosition=right;verticalLabelPosition=middle;align=left;verticalAlign=middle;rotation=90;container=0;" parent="1" vertex="1">
          <mxGeometry x="203" y="165" width="20" height="80" as="geometry" />
        </mxCell>
        <mxCell id="URvbOD4tHFGXEVozk75N-9" value="Fixed32" style="text;html=1;align=center;verticalAlign=middle;resizable=0;points=[];autosize=1;strokeColor=none;fillColor=none;container=0;" parent="1" vertex="1">
          <mxGeometry x="177.5" y="207" width="70" height="30" as="geometry" />
        </mxCell>
        <mxCell id="URvbOD4tHFGXEVozk75N-10" value="" style="shape=curlyBracket;whiteSpace=wrap;html=1;rounded=1;labelPosition=left;verticalLabelPosition=middle;align=right;verticalAlign=middle;rotation=90;container=0;" parent="1" vertex="1">
          <mxGeometry x="123" y="7" width="20" height="240" as="geometry" />
        </mxCell>
        <mxCell id="URvbOD4tHFGXEVozk75N-11" value="Header" style="text;html=1;align=center;verticalAlign=middle;resizable=0;points=[];autosize=1;strokeColor=none;fillColor=none;container=0;" parent="1" vertex="1">
          <mxGeometry x="103" y="90" width="60" height="30" as="geometry" />
        </mxCell>
        <mxCell id="URvbOD4tHFGXEVozk75N-12" value="&lt;b&gt;WriteBatch&lt;/b&gt;" style="text;html=1;align=center;verticalAlign=middle;resizable=0;points=[];autosize=1;strokeColor=none;fillColor=none;container=0;" parent="1" vertex="1">
          <mxGeometry x="-7" y="60" width="90" height="30" as="geometry" />
        </mxCell>
        <mxCell id="URvbOD4tHFGXEVozk75N-14" value="&lt;b&gt;rep_&lt;/b&gt;" style="text;html=1;strokeColor=none;fillColor=none;align=center;verticalAlign=middle;whiteSpace=wrap;rounded=0;" parent="1" vertex="1">
          <mxGeometry x="-47" y="150" width="60" height="30" as="geometry" />
        </mxCell>
      </root>
    </mxGraphModel>
  </diagram>
  <diagram id="RMUOH4AFn-J63V9aVuIR" name="日志">
    <mxGraphModel dx="1050" dy="588" grid="1" gridSize="10" guides="1" tooltips="1" connect="1" arrows="1" fold="1" page="1" pageScale="1" pageWidth="827" pageHeight="1169" math="0" shadow="0">
      <root>
        <mxCell id="0" />
        <mxCell id="1" parent="0" />
        <mxCell id="f81sSvOCYUk46uwJjD_y-1" value="checksum" style="rounded=0;whiteSpace=wrap;html=1;fillColor=#dae8fc;strokeColor=#6c8ebf;" vertex="1" parent="1">
          <mxGeometry x="40" y="80" width="160" height="40" as="geometry" />
        </mxCell>
        <mxCell id="f81sSvOCYUk46uwJjD_y-2" value="length" style="rounded=0;whiteSpace=wrap;html=1;fillColor=#d5e8d4;strokeColor=#82b366;" vertex="1" parent="1">
          <mxGeometry x="200" y="80" width="80" height="40" as="geometry" />
        </mxCell>
        <mxCell id="f81sSvOCYUk46uwJjD_y-3" value="type" style="rounded=0;whiteSpace=wrap;html=1;fillColor=#f8cecc;strokeColor=#b85450;" vertex="1" parent="1">
          <mxGeometry x="280" y="80" width="40" height="40" as="geometry" />
        </mxCell>
        <mxCell id="f81sSvOCYUk46uwJjD_y-4" value="" style="shape=curlyBracket;whiteSpace=wrap;html=1;rounded=1;labelPosition=left;verticalLabelPosition=middle;align=right;verticalAlign=middle;rotation=-90;" vertex="1" parent="1">
          <mxGeometry x="110" y="60" width="20" height="160" as="geometry" />
        </mxCell>
        <mxCell id="rOpv6fqfEIrmpdJGzOwJ-1" value="Fixed32" style="text;html=1;align=center;verticalAlign=middle;resizable=0;points=[];autosize=1;strokeColor=none;fillColor=none;" vertex="1" parent="1">
          <mxGeometry x="85" y="150" width="70" height="30" as="geometry" />
        </mxCell>
        <mxCell id="rOpv6fqfEIrmpdJGzOwJ-2" value="" style="shape=curlyBracket;whiteSpace=wrap;html=1;rounded=1;labelPosition=left;verticalLabelPosition=middle;align=right;verticalAlign=middle;rotation=-90;size=0.5;" vertex="1" parent="1">
          <mxGeometry x="230" y="100" width="20" height="80" as="geometry" />
        </mxCell>
        <mxCell id="rOpv6fqfEIrmpdJGzOwJ-4" value="" style="shape=curlyBracket;whiteSpace=wrap;html=1;rounded=1;labelPosition=left;verticalLabelPosition=middle;align=right;verticalAlign=middle;rotation=-90;size=0.5;" vertex="1" parent="1">
          <mxGeometry x="290" y="120" width="20" height="40" as="geometry" />
        </mxCell>
        <mxCell id="mfrbzExWGqUafXDXyoQb-1" value="" style="shape=curlyBracket;whiteSpace=wrap;html=1;rounded=1;labelPosition=left;verticalLabelPosition=middle;align=right;verticalAlign=middle;rotation=90;" vertex="1" parent="1">
          <mxGeometry x="170.13" y="-80.12" width="20.25" height="280" as="geometry" />
        </mxCell>
        <mxCell id="mfrbzExWGqUafXDXyoQb-2" value="kHeaderSize" style="text;html=1;align=center;verticalAlign=middle;resizable=0;points=[];autosize=1;strokeColor=none;fillColor=none;" vertex="1" parent="1">
          <mxGeometry x="135.26" y="20" width="90" height="30" as="geometry" />
        </mxCell>
        <mxCell id="mfrbzExWGqUafXDXyoQb-3" value="2" style="text;html=1;align=center;verticalAlign=middle;resizable=0;points=[];autosize=1;strokeColor=none;fillColor=none;" vertex="1" parent="1">
          <mxGeometry x="225" y="150" width="30" height="30" as="geometry" />
        </mxCell>
        <mxCell id="mfrbzExWGqUafXDXyoQb-4" value="1" style="text;html=1;align=center;verticalAlign=middle;resizable=0;points=[];autosize=1;strokeColor=none;fillColor=none;" vertex="1" parent="1">
          <mxGeometry x="285" y="150" width="30" height="30" as="geometry" />
        </mxCell>
        <mxCell id="Kz075IBLRhOOplbP-NPs-2" value="content" style="rounded=0;whiteSpace=wrap;html=1;fillColor=#ffe6cc;strokeColor=#d79b00;" vertex="1" parent="1">
          <mxGeometry x="320" y="80" width="200" height="40" as="geometry" />
        </mxCell>
        <mxCell id="Kz075IBLRhOOplbP-NPs-3" value="" style="shape=curlyBracket;whiteSpace=wrap;html=1;rounded=1;labelPosition=left;verticalLabelPosition=middle;align=right;verticalAlign=middle;rotation=-90;" vertex="1" parent="1">
          <mxGeometry x="410" y="40" width="20" height="200" as="geometry" />
        </mxCell>
        <mxCell id="Kz075IBLRhOOplbP-NPs-4" value="length" style="text;html=1;align=center;verticalAlign=middle;resizable=0;points=[];autosize=1;strokeColor=none;fillColor=none;" vertex="1" parent="1">
          <mxGeometry x="390" y="150" width="60" height="30" as="geometry" />
        </mxCell>
      </root>
    </mxGraphModel>
  </diagram>
</mxfile>
